<svg id="Layer_1" viewBox="0 0 512 512" xmlns="http://www.w3.org/2000/svg" data-name="Layer 1"><g fill="rgb(0,0,0)"><path d="m385.35 158.17a54.13 54.13 0 1 0 15.87 38.29 54.22 54.22 0 0 0 -15.87-38.29zm-8.48 68.1a42.14 42.14 0 1 1 0-59.61 42.14 42.14 0 0 1 0 59.61z"/><path d="m368.89 190.46h-15.83v-15.82a6 6 0 0 0 -12 0v15.82h-15.82a6 6 0 0 0 0 12h15.82v15.83a6 6 0 1 0 12 0v-15.83h15.83a6 6 0 0 0 0-12z"/><path d="m347.06 266.86a6 6 0 0 0 -6 6v78.22a6.62 6.62 0 0 1 -6.61 6.61h-205a6.63 6.63 0 0 1 -6.62-6.61v-24.19l41.65-41.64a7.74 7.74 0 0 1 10.94 0l33.39 33.39a19.78 19.78 0 0 0 27.92 0l65-65a6 6 0 1 0 -8.49-8.49l-65 65a7.74 7.74 0 0 1 -10.94 0l-33.39-33.39a19.77 19.77 0 0 0 -27.91 0l-33.17 33.16v-100.85a6.63 6.63 0 0 1 6.62-6.61h141.09a6 6 0 0 0 0-12h-141.14a18.64 18.64 0 0 0 -18.62 18.61v142a18.64 18.64 0 0 0 18.62 18.61h205.05a18.63 18.63 0 0 0 18.61-18.61v-78.21a6 6 0 0 0 -6-6z"/><path d="m181.26 244.48a27.77 27.77 0 1 0 27.74-27.77 27.8 27.8 0 0 0 -27.74 27.77zm43.54 0a15.77 15.77 0 1 1 -15.8-15.77 15.79 15.79 0 0 1 15.8 15.77z"/></g></svg>