<?xml version="1.0" encoding="UTF-8"?>
<svg xmlns="http://www.w3.org/2000/svg" xmlns:xlink="http://www.w3.org/1999/xlink" width="70px" height="70px" viewBox="0 0 53 53" version="1.1">
<g id="surface1">
<path style=" stroke:none;fill-rule:nonzero;fill:rgb(0%,0%,0%);fill-opacity:1;" d="M 39.890625 16.375 C 38 14.484375 35.035156 14.195312 32.816406 15.679688 C 30.59375 17.164062 29.730469 20.015625 30.753906 22.484375 C 31.777344 24.949219 34.402344 26.355469 37.023438 25.832031 C 39.644531 25.3125 41.535156 23.011719 41.535156 20.335938 C 41.53125 18.847656 40.941406 17.421875 39.890625 16.375 Z M 39.011719 23.421875 C 37.308594 25.125 34.546875 25.125 32.84375 23.421875 C 31.140625 21.71875 31.140625 18.957031 32.84375 17.25 C 34.546875 15.546875 37.308594 15.546875 39.011719 17.25 C 40.71875 18.957031 40.71875 21.71875 39.011719 23.421875 Z M 39.011719 23.421875 "/>
<path style=" stroke:none;fill-rule:nonzero;fill:rgb(0%,0%,0%);fill-opacity:1;" d="M 38.183594 19.714844 L 36.546875 19.714844 L 36.546875 18.078125 C 36.546875 17.734375 36.269531 17.457031 35.925781 17.457031 C 35.582031 17.457031 35.304688 17.734375 35.304688 18.078125 L 35.304688 19.714844 L 33.667969 19.714844 C 33.324219 19.714844 33.046875 19.992188 33.046875 20.335938 C 33.046875 20.679688 33.324219 20.957031 33.667969 20.957031 L 35.304688 20.957031 L 35.304688 22.597656 C 35.304688 22.9375 35.582031 23.21875 35.925781 23.21875 C 36.269531 23.21875 36.546875 22.9375 36.546875 22.597656 L 36.546875 20.957031 L 38.183594 20.957031 C 38.527344 20.957031 38.804688 20.679688 38.804688 20.335938 C 38.804688 19.992188 38.527344 19.714844 38.183594 19.714844 Z M 38.183594 19.714844 "/>
<path style=" stroke:none;fill-rule:nonzero;fill:rgb(0%,0%,0%);fill-opacity:1;" d="M 35.925781 27.625 C 35.582031 27.625 35.304688 27.902344 35.304688 28.246094 L 35.304688 36.34375 C 35.304688 36.71875 34.996094 37.027344 34.621094 37.027344 L 13.402344 37.027344 C 13.023438 37.027344 12.714844 36.722656 12.714844 36.34375 L 12.714844 33.835938 L 17.027344 29.527344 C 17.339844 29.214844 17.847656 29.214844 18.160156 29.527344 L 21.613281 32.984375 C 22.414062 33.78125 23.707031 33.78125 24.507812 32.984375 L 31.234375 26.253906 C 31.476562 26.011719 31.476562 25.617188 31.234375 25.375 C 30.988281 25.132812 30.597656 25.132812 30.355469 25.375 L 23.625 32.105469 C 23.316406 32.417969 22.804688 32.417969 22.496094 32.105469 L 19.039062 28.648438 C 18.238281 27.855469 16.945312 27.855469 16.148438 28.648438 L 12.714844 32.082031 L 12.714844 21.640625 C 12.714844 21.265625 13.023438 20.957031 13.402344 20.957031 L 28.003906 20.957031 C 28.347656 20.957031 28.625 20.679688 28.625 20.335938 C 28.625 19.992188 28.347656 19.714844 28.003906 19.714844 L 13.394531 19.714844 C 12.332031 19.714844 11.46875 20.578125 11.464844 21.640625 L 11.464844 36.339844 C 11.46875 37.40625 12.332031 38.265625 13.394531 38.269531 L 34.621094 38.269531 C 35.683594 38.265625 36.546875 37.40625 36.546875 36.339844 L 36.546875 28.246094 C 36.546875 27.902344 36.269531 27.625 35.925781 27.625 Z M 35.925781 27.625 "/>
<path style=" stroke:none;fill-rule:nonzero;fill:rgb(0%,0%,0%);fill-opacity:1;" d="M 18.761719 25.308594 C 18.761719 26.894531 20.050781 28.183594 21.636719 28.183594 C 23.226562 28.183594 24.511719 26.894531 24.511719 25.304688 C 24.511719 23.71875 23.222656 22.429688 21.636719 22.433594 C 20.050781 22.4375 18.765625 23.722656 18.761719 25.308594 Z M 23.269531 25.308594 C 23.269531 26.207031 22.539062 26.941406 21.636719 26.941406 C 20.738281 26.941406 20.003906 26.210938 20.003906 25.308594 C 20.003906 24.410156 20.734375 23.675781 21.636719 23.675781 C 22.535156 23.675781 23.269531 24.40625 23.269531 25.308594 Z M 23.269531 25.308594 "/>
</g>
</svg>
