<?xml version="1.0" standalone="no"?>
<!DOCTYPE svg PUBLIC "-//W3C//DTD SVG 20010904//EN"
 "http://www.w3.org/TR/2001/REC-SVG-20010904/DTD/svg10.dtd">
<svg version="1.0" xmlns="http://www.w3.org/2000/svg"
 width="512.000000pt" height="512.000000pt" viewBox="0 0 512.000000 512.000000"
 preserveAspectRatio="xMidYMid meet">

<g transform="translate(0.000000,512.000000) scale(0.100000,-0.100000)"
fill="black" stroke="none">
<path d="M132 5109 c-48 -14 -109 -80 -123 -131 -15 -58 -4 -125 29 -172 23
-34 79 -68 397 -242 248 -136 371 -209 374 -221 2 -10 131 -736 286 -1613
l282 -1595 -61 -34 c-33 -19 -90 -65 -126 -101 -227 -230 -224 -596 5 -825
215 -216 552 -232 790 -39 60 49 147 165 165 220 l12 34 588 0 588 0 12 -34
c18 -55 105 -171 165 -220 205 -166 487 -180 703 -33 124 85 206 201 242 343
80 313 -111 634 -425 714 -140 36 -281 20 -415 -47 -101 -51 -203 -153 -251
-251 l-34 -71 -585 0 -585 0 -35 72 c-58 118 -215 256 -322 282 -23 6 -28 15
-37 58 -18 89 -61 341 -61 354 0 11 227 13 1199 13 1302 0 1266 -1 1420 56
232 86 426 304 487 548 21 83 13 141 -27 196 -74 102 -231 107 -313 10 -14
-17 -33 -57 -42 -88 -51 -179 -182 -299 -347 -318 l-58 -7 6 39 c3 21 32 345
65 719 33 374 63 704 66 733 l6 52 253 0 252 0 -43 -217 c-43 -210 -44 -219
-29 -268 34 -118 167 -178 275 -122 91 46 95 56 172 444 74 373 77 405 37 470
-12 19 -40 46 -62 61 l-41 27 -1848 3 c-1016 1 -1848 6 -1848 10 0 35 -114
641 -125 661 -7 14 -26 38 -42 53 -15 15 -214 129 -442 253 -360 197 -420 227
-465 231 -28 2 -66 -1 -84 -7z m1772 -1651 c3 -29 33 -359 66 -733 33 -374 62
-697 65 -717 l5 -38 -202 0 -203 0 -113 643 c-63 353 -124 699 -136 770 l-23
127 267 0 268 0 6 -52z m926 -718 l0 -770 -194 0 -194 0 -6 48 c-3 26 -33 353
-66 727 -33 374 -62 699 -66 723 l-5 42 265 0 266 0 0 -770z m935 728 c-3 -24
-32 -349 -65 -723 -33 -374 -63 -701 -66 -727 l-6 -48 -199 0 -199 0 0 770 0
770 271 0 270 0 -6 -42z m-2087 -2703 c160 -67 160 -283 0 -350 -47 -19 -89
-19 -136 0 -157 66 -161 275 -7 346 49 23 94 24 143 4z m2280 0 c160 -67 160
-283 0 -350 -47 -19 -89 -19 -136 0 -157 66 -161 275 -7 346 49 23 94 24 143
4z"/>
</g>
</svg>
