<?xml version="1.0" encoding="UTF-8" standalone="no" ?>
<!DOCTYPE svg PUBLIC "-//W3C//DTD SVG 1.1//EN" "http://www.w3.org/Graphics/SVG/1.1/DTD/svg11.dtd">
<svg xmlns="http://www.w3.org/2000/svg" xmlns:xlink="http://www.w3.org/1999/xlink" version="1.1" width="600" height="600" viewBox="0 0 600 600" xml:space="preserve">
<desc>Created with Fabric.js 5.2.4</desc>
<defs>
</defs>
<rect x="0" y="0" width="100%" height="100%" fill="transparent"></rect>
<g transform="matrix(1 0 0 1 300 300)" id="f7a1a82d-ea99-45cf-b6a6-4e17d17a2e12"  >
<rect style="stroke: none; stroke-width: 1; stroke-dasharray: none; stroke-linecap: butt; stroke-dashoffset: 0; stroke-linejoin: miter; stroke-miterlimit: 4; fill: rgb(255,255,255); fill-rule: nonzero; opacity: 1; visibility: hidden;" vector-effect="non-scaling-stroke"  x="-300" y="-300" rx="0" ry="0" width="600" height="600" />
</g>
<g transform="matrix(0 0 0 0 0 0)" id="6aec6225-b78a-42df-a3a3-1681904fbbfe"  >
</g>
<g transform="matrix(0.8 0 0 0.8 300 300)"  >
<g style="" vector-effect="non-scaling-stroke"   >
		<g transform="matrix(1 0 0 1 -250 -250)"  >
<rect style="stroke: none; stroke-width: 1; stroke-dasharray: none; stroke-linecap: butt; stroke-dashoffset: 0; stroke-linejoin: miter; stroke-miterlimit: 4; fill: rgb(255,255,255); fill-opacity: 0; fill-rule: nonzero; opacity: 1;" vector-effect="non-scaling-stroke"  x="-50" y="-50" rx="0" ry="0" width="100" height="100" />
</g>
		<g transform="matrix(1 0 0 1 0 0)"  >
<rect style="stroke: none; stroke-width: 1; stroke-dasharray: none; stroke-linecap: butt; stroke-dashoffset: 0; stroke-linejoin: miter; stroke-miterlimit: 4; fill: rgb(255,255,255); fill-rule: nonzero; opacity: 1; visibility: hidden;" vector-effect="non-scaling-stroke"  x="-300" y="-300" rx="0" ry="0" width="600" height="600" />
</g>
		<g transform="matrix(7.1 0 0 7.1 0.01 -0.01)"  >
<path style="stroke: rgb(0,0,0); stroke-width: 0; stroke-dasharray: none; stroke-linecap: butt; stroke-dashoffset: 0; stroke-linejoin: miter; stroke-miterlimit: 4; fill: rgb(0,0,0); fill-rule: nonzero; opacity: 1;" vector-effect="non-scaling-stroke"  transform=" translate(-355.38, -305.16)" d="M 314.995 305.6 L 316.61 321.84400000000005 C 316.68499849591626 322.39810666623873 316.9012601280091 322.9236086575981 317.238 323.37000000000006 L 317.956 326.87000000000006 C 318.07532915143685 327.31158135201633 318.4861292894062 327.6104207634267 318.94300000000004 327.5880000000001 C 321.4166117756249 327.28264144928676 323.9183882243752 327.28264144928676 326.39200000000005 327.5880000000001 L 326.57200000000006 327.5880000000001 C 326.9498980805141 327.5784801280991 327.27750248383364 327.3238569037369 327.38000000000005 326.9600000000001 L 328.09800000000007 323.63900000000007 C 328.6678955202483 322.99432034846814 328.98728414661844 322.1663940536665 328.99800000000005 321.30600000000004 L 329.357 302.19000000000005 L 331.87 302.54900000000004 C 331.78000000000003 306.22900000000004 331.511 321.93500000000006 332.678 331.449 L 332.678 331.449 C 332.858 332.795 333.037 333.962 333.217 335.039 C 333.29459235934587 335.45935330512106 333.69569250826083 335.73923207569726 334.11699999999996 335.667 C 334.20699999999994 335.667 343.54099999999994 334.767 355.29799999999994 334.767 C 367.05499999999995 334.767 376.38899999999995 335.575 376.4789999999999 335.667 L 376.5689999999999 335.667 C 376.9752665886952 335.651405487198 377.31375835479184 335.3506170118795 377.3769999999999 334.94899999999996 C 377.6268475235522 333.7639674565642 377.8064935811712 332.56521402375364 377.9149999999999 331.359 L 377.9149999999999 331.359 C 379.0819999999999 321.846 378.8149999999999 306.14 378.7229999999999 302.459 L 381.2359999999999 302.1 L 381.59499999999986 321.127 C 381.6306943009784 321.9396003457626 381.91247551670364 322.7221709498313 382.40299999999985 323.37100000000004 L 382.40299999999985 323.37100000000004 L 383.12099999999987 326.69200000000006 C 383.2234975161663 327.05585690373687 383.5511019194858 327.3104801280991 383.92899999999986 327.32000000000005 L 384.10799999999983 327.32000000000005 C 386.58151076991265 327.0130032032323 389.083489230087 327.0130032032323 391.55699999999985 327.32000000000005 C 392.02427512321606 327.3799955563944 392.45721716826745 327.0650488610075 392.54399999999987 326.60200000000003 L 393.2619999999999 323.10200000000003 C 393.64961653646185 322.6864198394223 393.8728279058462 322.144030429103 393.8899999999999 321.576 L 395.77499999999986 305.601 C 395.86573550673137 304.84118523852675 395.6738948529486 304.0745344625561 395.2359999999999 303.447 L 383.652 284.6 C 383.3768717499752 284.1561193746675 382.96838777491473 283.81064063997627 382.485 283.613 L 377.728 281.459 L 377.728 281.459 L 363.728 275.177 C 363.374705424311 274.8720121049956 362.9355482135869 274.6840514213285 362.471 274.639 L 362.2 274.639 C 361.4951904177827 274.6530649260321 360.834137690156 274.98359128984544 360.4 275.539 C 357.2299937038552 277.095062571358 353.51800629614473 277.095062571358 350.34799999999996 275.539 C 349.91414108525015 274.98325050713333 349.25291494314314 274.65263743607983 348.54799999999994 274.639 L 348.27899999999994 274.639 C 347.82575838824556 274.7244499312185 347.39671638391206 274.90808127436196 347.02199999999993 275.177 L 333.02199999999993 281.459 L 333.02199999999993 281.459 L 328.26499999999993 283.613 C 327.781970412861 283.8112309322314 327.37365090610234 284.15657056648234 327.09799999999996 284.6 L 315.52099999999996 303.447 C 315.0791450373193 304.0720694506129 314.8911392149224 304.8416065905758 314.995 305.6 Z M 362.742 276.97 C 362.5912375880735 278.1468362529354 362.1935545788315 279.2785459990304 361.57500000000005 280.29100000000005 C 360.19705790684276 282.36522176356175 357.8722048784242 283.61188089623073 355.38200000000006 283.61188089623073 C 352.89179512157585 283.61188089623073 350.5669420931573 282.36522176356175 349.189 280.29100000000005 C 348.5708003041717 279.27837758411164 348.1731446373131 278.14674564783286 348.02200000000005 276.97 C 348.0022598093291 276.64970958621495 348.2404741304317 276.37164528574567 348.56000000000006 276.34200000000004 L 348.65000000000003 276.34200000000004 C 348.7946112344982 276.33571545000785 348.93523424506606 276.390341975446 349.0376813352619 276.4925989968288 C 349.14012842545765 276.5948560182116 349.1950159948482 276.7353773443832 349.189 276.88000000000005 C 349.34212889197136 277.8606439951603 349.67685458224537 278.80411600158607 350.17600000000004 279.66200000000003 C 351.27957541722316 281.4605318257454 353.2674003405501 282.52401815972536 355.37600000000003 282.444 C 357.4983928065461 282.5858607079956 359.51621655003044 281.5063250052315 360.576 279.66200000000003 C 361.13258078873406 278.79086056987893 361.49953768129535 277.8123088563821 361.653 276.79 C 361.6728052844321 276.5009190941556 361.9029190941556 276.27080528443213 362.192 276.25100000000003 L 362.282 276.25100000000003 C 362.60170239101103 276.3301617578023 362.8037145614115 276.64547640638386 362.742 276.969 Z M 355.382 278.31600000000003 C 356.84549698793535 278.28984177558107 358.29712720889825 278.0479034054206 359.69 277.598 C 359.56874382238857 278.0112325420178 359.38747777205015 278.40442488540987 359.152 278.765 C 358.36996889743887 280.08322355521835 356.91091457513505 280.8471952348544 355.382 280.739 C 353.8488069251433 280.8693501609364 352.37896863070955 280.0995277164651 351.613 278.765 C 351.36103804022133 278.41365134332085 351.1781277674689 278.01762854498674 351.074 277.598 C 352.466923907663 278.04756392796105 353.9185529398686 278.28916513875294 355.382 278.315 Z M 376.294 282.624 C 374.5996416865808 286.70985964288263 373.8925110609051 291.1376485024912 374.22999999999996 295.548 C 374.58899999999994 298.958 375.39699999999993 301.202 376.65299999999996 302.189 C 376.83299999999997 302.279 376.92199999999997 302.369 377.102 302.458 C 377.19199999999995 305.77900000000005 377.46099999999996 320.946 376.38399999999996 330.458 C 373.78399999999993 330.278 365.43499999999995 329.65000000000003 355.29299999999995 329.65000000000003 C 345.15099999999995 329.65000000000003 336.80499999999995 330.278 334.20199999999994 330.458 C 333.12499999999994 320.94500000000005 333.4839999999999 305.77700000000004 333.4839999999999 302.458 C 333.66399999999993 302.36800000000005 333.75299999999993 302.278 333.93299999999994 302.189 C 335.18999999999994 301.202 335.99699999999996 299.048 336.35599999999994 295.548 C 336.9839999999999 290.073 335.09899999999993 284.688 334.2919999999999 282.624 L 346.1389999999999 277.324 C 346.3732510607819 278.660638242 346.8606507220888 279.94023206033347 347.5749999999999 281.094 C 349.20729240143925 283.76931051249693 352.1616392053201 285.3494535037408 355.2929999999999 285.222 C 358.4194524386011 285.3281948415445 361.3637501410698 283.75342664825723 363.0109999999999 281.094 C 363.72550413147917 279.94030862578575 364.2129154893783 278.6606840998248 364.4469999999999 277.324 Z M 394.06399999999996 305.42400000000004 L 392.44899999999996 321.66900000000004 C 392.46117995171176 321.76765876220327 392.4280987328374 321.86653484972777 392.359 321.93800000000005 C 389.49578711784295 321.233843502458 386.50104381693126 321.26480225470726 383.65299999999996 322.028 C 383.5503982148907 321.7699572584186 383.489634112802 321.49719395570935 383.47299999999996 321.22 L 383.114 301.206 L 383.114 289.534 C 383.1416652500772 289.1960189292823 382.977004595343 288.87117892435043 382.688049730372 288.69369186500546 C 382.39909486540097 288.51620480566055 382.034905134599 288.51620480566055 381.745950269628 288.69369186500546 C 381.456995404657 288.87117892435043 381.29233474992276 289.1960189292823 381.32 289.534 L 381.32 300.483 L 377.90999999999997 300.932 C 377.72999999999996 300.84200000000004 376.474 300.30400000000003 375.936 295.368 C 375.67481444484 291.2696044352573 376.3183537631035 287.16392600478713 377.82099999999997 283.342 L 381.77 285.142 C 381.9303757342142 285.2125245547821 382.0584754452179 285.3406242657858 382.12899999999996 285.501 L 393.70699999999994 304.34799999999996 C 393.95450694128624 304.6484809308446 394.08171699452225 305.0301110905525 394.064 305.419 Z M 384.909 325.7 L 384.371 323.546 C 386.76228326900014 322.98862045522276 389.2497167309998 322.98862045522276 391.64099999999996 323.546 L 391.282 325.7 C 389.1616553335931 325.5158993959002 387.0293446664068 325.5158993959002 384.909 325.7 Z M 334.74 333.957 C 334.65000000000003 333.418 334.56 332.79 334.471 332.157 C 337.071 331.977 345.331 331.349 355.382 331.349 C 365.433 331.349 373.601 331.977 376.293 332.157 C 376.20300000000003 332.78499999999997 376.11400000000003 333.414 376.024 333.957 C 373.511 333.777 365.344 333.149 355.382 333.149 C 345.42 333.149 337.253 333.69 334.74 333.959 Z M 319.483 325.7 L 319.034 323.546 C 321.42570243671474 322.992277303557 323.9122975632852 322.992277303557 326.304 323.546 L 325.85499999999996 325.7 C 323.7349896108365 325.51589205973863 321.60301038916344 325.51589205973863 319.48299999999995 325.7 Z M 316.7 305.419 C 316.6931827122566 305.04256663023415 316.78598338401963 304.67101895927215 316.969 304.342 L 328.54699999999997 285.495 C 328.63699999999994 285.315 328.816 285.226 328.90599999999995 285.136 L 332.85499999999996 283.336 C 334.3569174716829 287.1581237739694 335.000431229255 291.2636391312969 334.73999999999995 295.362 C 334.20199999999994 300.298 332.93999999999994 300.83700000000005 332.76599999999996 300.92600000000004 L 329.35599999999994 300.47700000000003 L 329.35599999999994 289.533 C 329.35599999999994 289.0359437251523 328.95305627484765 288.63300000000004 328.45599999999996 288.63300000000004 C 328.21290348059085 288.61757422389115 327.9749122420749 288.70743039257513 327.802671317325 288.87967131732506 C 327.6304303925751 289.05191224207493 327.5405742238911 289.2899034805909 327.556 289.533 L 327.556 301.2 L 327.197 321.214 C 327.18016312775626 321.4911654344049 327.1194060923379 321.76389701561607 327.017 322.022 C 324.1689561830687 321.25880225470723 321.174212882157 321.227843502458 318.311 321.932 C 318.311 321.84200000000004 318.221 321.752 318.221 321.663 Z" stroke-linecap="round" />
</g>
</g>
</g>
</svg>