<?xml version="1.0" standalone="no"?>
<!DOCTYPE svg PUBLIC "-//W3C//DTD SVG 20010904//EN"
 "http://www.w3.org/TR/2001/REC-SVG-20010904/DTD/svg10.dtd">
<svg version="1.0" xmlns="http://www.w3.org/2000/svg"
 width="512.000000pt" height="512.000000pt" viewBox="0 0 512.000000 512.000000"
 preserveAspectRatio="xMidYMid meet">

<g transform="translate(0.000000,512.000000) scale(0.100000,-0.100000)"
fill="black" stroke="none">
<path d="M1176 4749 c-324 -45 -596 -189 -812 -431 -340 -380 -455 -987 -284
-1499 68 -206 200 -436 373 -652 165 -205 529 -558 897 -868 187 -158 1088
-897 1114 -914 32 -21 104 -29 151 -16 26 7 78 41 145 97 58 48 263 216 455
374 713 584 916 762 1185 1036 102 104 221 233 264 288 351 439 493 855 447
1309 -81 782 -669 1319 -1406 1284 -206 -10 -366 -52 -545 -142 -207 -105
-417 -299 -555 -513 -22 -34 -42 -62 -45 -62 -3 0 -23 28 -45 62 -97 150 -257
320 -396 418 -142 100 -331 181 -499 215 -93 19 -352 27 -444 14z m349 -404
c359 -63 664 -358 830 -805 34 -92 63 -132 110 -154 128 -61 244 -5 294 139
34 99 109 249 174 347 161 245 357 394 601 460 115 31 354 31 471 -1 374 -101
636 -415 701 -841 67 -445 -102 -836 -571 -1318 -223 -230 -448 -427 -1137
-993 l-438 -359 -367 302 c-719 590 -914 759 -1154 998 -396 394 -574 686
-625 1020 -59 395 89 807 371 1027 203 160 473 224 740 178z"/>
</g>
</svg>
