<?xml version="1.0" standalone="no"?>
<!DOCTYPE svg PUBLIC "-//W3C//DTD SVG 20010904//EN"
 "http://www.w3.org/TR/2001/REC-SVG-20010904/DTD/svg10.dtd">
<svg version="1.0" xmlns="http://www.w3.org/2000/svg"
 width="512.000000pt" height="512.000000pt" viewBox="0 0 512.000000 512.000000"
 preserveAspectRatio="xMidYMid meet">

<g transform="translate(0.000000,512.000000) scale(0.100000,-0.100000)"
fill="black" stroke="none">
<path d="M2420 5114 c-208 -27 -407 -101 -580 -217 -96 -64 -273 -241 -337
-337 -152 -228 -211 -420 -220 -727 -9 -284 18 -450 105 -651 74 -172 229
-372 382 -495 24 -19 42 -38 40 -40 -3 -2 -174 -64 -380 -137 -206 -73 -421
-154 -477 -180 -468 -219 -803 -647 -915 -1168 -20 -90 -21 -136 -25 -630 l-4
-532 2551 0 2551 0 -4 538 c-3 509 -5 542 -25 635 -99 436 -345 801 -702 1042
-146 98 -262 149 -683 300 l-388 139 43 35 c187 150 348 378 422 601 52 158
61 227 61 480 0 259 -9 326 -67 490 -68 191 -157 331 -307 481 -185 185 -379
293 -631 350 -83 19 -331 33 -410 23z m301 -309 c150 -26 299 -88 413 -171
l49 -37 -24 -19 c-50 -39 -177 -109 -249 -137 -217 -84 -483 -84 -700 0 -72
28 -199 98 -249 137 l-24 19 36 27 c204 156 494 226 748 181z m-908 -488 c152
-109 345 -191 526 -223 111 -19 331 -19 443 1 179 31 375 114 526 222 57 42
77 51 84 41 27 -40 72 -140 98 -216 42 -129 53 -226 47 -430 -5 -191 -24 -286
-82 -417 -140 -316 -463 -546 -805 -573 -368 -30 -704 131 -905 433 -116 174
-155 308 -162 557 -6 205 5 301 48 432 25 76 95 226 105 226 1 0 36 -24 77
-53z m1276 -1902 c85 -31 160 -59 168 -64 11 -6 -73 -92 -337 -344 -193 -186
-355 -337 -360 -337 -16 0 -711 663 -703 670 4 4 82 33 173 65 l164 58 84 -17
c182 -38 419 -37 567 3 39 10 75 19 80 20 6 0 79 -24 164 -54z m710 -256 c108
-39 228 -87 266 -106 312 -156 568 -451 679 -784 55 -167 59 -198 63 -596 l5
-373 -346 0 -346 0 0 285 0 285 -150 0 -150 0 0 -285 0 -285 -1255 0 -1255 0
0 285 0 285 -150 0 -150 0 0 -285 0 -285 -350 0 -350 0 0 333 c0 374 8 450 65
624 118 355 375 648 706 802 95 44 433 165 447 159 5 -1 238 -219 517 -483
279 -264 511 -481 514 -482 3 -1 236 218 516 487 281 269 514 489 519 489 5 1
97 -31 205 -70z"/>
</g>
</svg>
