<?xml version="1.0" encoding="UTF-8" standalone="no" ?>
<!DOCTYPE svg PUBLIC "-//W3C//DTD SVG 1.1//EN" "http://www.w3.org/Graphics/SVG/1.1/DTD/svg11.dtd">
<svg xmlns="http://www.w3.org/2000/svg" xmlns:xlink="http://www.w3.org/1999/xlink" version="1.1" width="600" height="600" viewBox="0 0 600 600" xml:space="preserve">
<desc>Created with Fabric.js 5.2.4</desc>
<defs>
</defs>
<rect x="0" y="0" width="100%" height="100%" fill="transparent"></rect>
<g transform="matrix(1 0 0 1 300 300)" id="f7a1a82d-ea99-45cf-b6a6-4e17d17a2e12"  >
<rect style="stroke: none; stroke-width: 1; stroke-dasharray: none; stroke-linecap: butt; stroke-dashoffset: 0; stroke-linejoin: miter; stroke-miterlimit: 4; fill: rgb(255,255,255); fill-rule: nonzero; opacity: 1; visibility: hidden;" vector-effect="non-scaling-stroke"  x="-300" y="-300" rx="0" ry="0" width="600" height="600" />
</g>
<g transform="matrix(0 0 0 0 0 0)" id="6aec6225-b78a-42df-a3a3-1681904fbbfe"  >
</g>
<g transform="matrix(2.02 0 0 2.02 300 300)" id="1bddd710-56fa-47d3-96df-1249227eb345"  >
<path style="stroke: rgb(0,0,0); stroke-width: 0; stroke-dasharray: none; stroke-linecap: butt; stroke-dashoffset: 0; stroke-linejoin: miter; stroke-miterlimit: 4; fill: rgb(0,0,0); fill-rule: nonzero; opacity: 1;" vector-effect="non-scaling-stroke"  transform=" translate(-110.2, -110.2)" d="M 212.216 27.03 L 175.26 27.03 L 175.26 26.37 C 175.26 21.858 171.59199999999998 18.186 167.07999999999998 18.186 L 104.34799999999998 18.186 C 99.83599999999998 18.186 96.16799999999998 21.858 96.16799999999998 26.369999999999997 L 96.16799999999998 34.282 C 96.16799999999998 38.181999999999995 98.91599999999998 41.44199999999999 102.57599999999998 42.254 C 102.51999999999998 42.582 102.47999999999998 42.882 102.46399999999998 43.102 C 102.28399999999998 45.153999999999996 102.11999999999999 47.337999999999994 101.95199999999998 49.506 C 99.02799999999998 45.794 94.74799999999999 40.506 90.39599999999999 40.294 C 88.25199999999998 40.174 86.41199999999999 40.849999999999994 85.34799999999998 42.098 C 83.68799999999999 44.046 84.15999999999998 46.833999999999996 85.06799999999998 48.626 C 86.47999999999999 51.402 92.23599999999999 52.141999999999996 96.95199999999998 52.05 C 92.59999999999998 53.686 87.37999999999998 56.126 85.41999999999999 58.013999999999996 C 83.83599999999998 59.541999999999994 82.53199999999998 61.861999999999995 83.62399999999998 63.785999999999994 C 84.14799999999998 64.714 85.14399999999998 65.36999999999999 86.59199999999998 65.722 C 90.03599999999999 66.55 93.98799999999999 65.46199999999999 96.91999999999999 62.846 C 98.29599999999999 61.622 99.612 59.662 100.67999999999999 57.546 C 99.704 66.55799999999999 93.556 75.166 84.77199999999999 79.69 L 85.29199999999999 80.698 C 93.216 76.618 99.02399999999999 69.30999999999999 101.088 61.306 C 101.07199999999999 61.522 101.056 61.733999999999995 101.044 61.949999999999996 C 100.592 68.402 100.14 74.85799999999999 99.628 80.72999999999999 C 98.512 93.49 96.44 117.24599999999998 86.136 124.362 C 78.464 129.658 66.116 129.162 54.187999999999995 128.706 C 43.395999999999994 128.28199999999998 32.23599999999999 127.84599999999999 23.931999999999995 131.618 C 14.127999999999995 136.07399999999998 5.971999999999994 146.47 3.1559999999999953 158.102 C 1.9399999999999953 163.118 1.5159999999999954 172.126 1.3799999999999952 176.106 L 0 176.106 L 0 184.07399999999998 L 1.908 184.07399999999998 L 1.908 189.034 C 1.908 191.422 3.848 193.362 6.236000000000001 193.362 L 16.36 193.362 C 18.744 193.362 20.683999999999997 191.422 20.683999999999997 189.034 L 20.683999999999997 184.07399999999998 L 29.171999999999997 184.07399999999998 L 29.171999999999997 189.07 C 29.171999999999997 191.438 31.099999999999998 193.36599999999999 33.467999999999996 193.36599999999999 L 43.651999999999994 193.36599999999999 C 44.31199999999999 193.36599999999999 44.916 193.19 45.47599999999999 192.926 L 47.05199999999999 192.926 L 47.05199999999999 197.886 C 47.05199999999999 200.26999999999998 48.99199999999999 202.21 51.37599999999999 202.21 L 61.5 202.21 C 63.884 202.21 65.828 200.27 65.828 197.886 L 65.828 192.926 L 74.312 192.926 L 74.312 197.914 C 74.312 200.28199999999998 76.24 202.20999999999998 78.608 202.20999999999998 L 88.78800000000001 202.20999999999998 C 91.156 202.20999999999998 93.08400000000002 200.28199999999998 93.08400000000002 197.914 L 93.08400000000002 192.926 L 101.56800000000001 192.926 L 101.56800000000001 197.81799999999998 C 101.56800000000001 200.23799999999997 103.54 202.21399999999997 105.96400000000001 202.21399999999997 L 115.94800000000001 202.21399999999997 C 118.36800000000001 202.21399999999997 120.34400000000001 200.24199999999996 120.34400000000001 197.81799999999998 L 120.34400000000001 192.926 L 128.828 192.926 L 128.828 198.20999999999998 C 128.828 200.41799999999998 130.624 202.20999999999998 132.828 202.20999999999998 L 143.6 202.20999999999998 C 145.804 202.20999999999998 147.6 200.41799999999998 147.6 198.20999999999998 L 147.6 192.95 C 147.22799999999998 192.974 146.82399999999998 192.92999999999998 146.436 192.922 L 165.084 192.922 L 165.084 197.966 C 165.084 200.306 166.988 202.21 169.328 202.21 L 179.62 202.21 C 181.95600000000002 202.21 183.864 200.306 183.864 197.966 L 183.864 192.922 L 192.348 192.922 L 192.348 198.17 C 192.348 200.398 194.16000000000003 202.20999999999998 196.388 202.20999999999998 L 207.08 202.20999999999998 C 209.30800000000002 202.20999999999998 211.12 200.39799999999997 211.12 198.17 L 211.12 192.922 L 214.532 192.922 L 214.532 184.954 L 212.15200000000002 184.954 C 213.94000000000003 177.834 218.876 152.92200000000003 206.276 133.782 C 201.192 128.43800000000002 205.928 104.85000000000001 209.728 85.89000000000001 C 213.364 67.76200000000001 215.472 56.44600000000001 213.72400000000002 51.15000000000001 C 217.51600000000002 50.43800000000001 220.4 47.11400000000001 220.4 43.11800000000001 L 220.4 35.20600000000001 C 220.4 30.702 216.728 27.03 212.216 27.03 z M 203.116 31.03 L 209.132 31.03 L 209.132 47.306 L 203.116 47.306 L 203.116 31.03 z M 195.968 31.03 L 201.98399999999998 31.03 L 201.98399999999998 47.306 L 195.968 47.306 L 195.968 31.03 z M 188.82 31.03 L 194.83599999999998 31.03 L 194.83599999999998 47.306 L 192.75199999999998 47.306 C 192.27999999999997 47.306 191.81199999999998 47.306 191.332 47.306 L 188.82 47.306 L 188.82 31.03 z M 181.668 31.03 L 187.684 31.03 L 187.684 47.306 L 181.668 47.306 L 181.668 31.03 z M 174.52 31.03 L 180.536 31.03 L 180.536 47.306 L 174.52 47.306 L 174.52 31.03 z M 173.388 31.03 L 173.388 47.306 L 167.372 47.306 L 167.372 31.03 L 173.388 31.03 z M 165.124 22.186 L 167.076 22.186 C 169.384 22.186 171.26 24.062 171.26 26.37 L 171.26 27.03 L 165.124 27.03 L 165.124 22.186 z M 164.44 68.658 L 162.22 69.206 C 162.484 66.74600000000001 162.732 64.438 162.956 62.334 L 164.04 62.466 C 163.79999999999998 62.730000000000004 163.636 63.054 163.636 63.426 L 163.636 67.378 C 163.636 67.93 163.964 68.382 164.44 68.658 z M 161.952 61.062 L 150.992 59.733999999999995 C 151.184 57.202 151.37599999999998 54.678 151.584 52.294 C 151.612 51.977999999999994 151.644 51.754 151.572 51.721999999999994 C 151.65200000000002 51.709999999999994 151.792 51.693999999999996 152.04 51.69 C 155.51999999999998 51.662 159.21599999999998 51.622 162.956 51.574 C 162.776 53.266 162.424 56.63 161.952 61.062 z M 145.904 126.202 C 146.076 127.586 147.10399999999998 128.754 148.552 128.95 C 148.69199999999998 128.97 148.83599999999998 128.97799999999998 148.97199999999998 128.97799999999998 C 149.65999999999997 128.97799999999998 150.32 128.754 150.87599999999998 128.32999999999998 C 151.54399999999998 127.82199999999999 151.97199999999998 127.08199999999998 152.08399999999997 126.24599999999998 C 152.19599999999997 125.40999999999998 151.97599999999997 124.58999999999997 151.46399999999997 123.92199999999998 C 150.95199999999997 123.25399999999998 150.21599999999998 122.82599999999998 149.37999999999997 122.71399999999998 C 149.01999999999995 122.66199999999998 148.67199999999997 122.70599999999999 148.33199999999997 122.77799999999998 L 145.13599999999997 115.21399999999997 C 145.36799999999997 114.25399999999998 145.57999999999996 113.28999999999996 145.78399999999996 112.31799999999997 L 148.35199999999998 111.69799999999996 C 148.45999999999998 112.07399999999997 148.628 112.43799999999996 148.87599999999998 112.75799999999997 C 149.384 113.42599999999997 150.12399999999997 113.85399999999997 150.95999999999998 113.96599999999997 C 151.09999999999997 113.98599999999996 151.23999999999998 113.99399999999997 151.37599999999998 113.99399999999997 C 152.92399999999998 113.99399999999997 154.27999999999997 112.84599999999998 154.492 111.26599999999998 C 154.72 109.54599999999998 153.50799999999998 107.96199999999997 151.792 107.72999999999998 C 151.224 107.64999999999998 150.68 107.78199999999998 150.16400000000002 108.00199999999998 L 147.29200000000003 103.50199999999998 C 147.40800000000004 102.67799999999998 147.51600000000002 101.86199999999998 147.61600000000004 101.05399999999999 L 151.26400000000004 98.63799999999999 C 151.75200000000004 99.294 152.48800000000003 99.76599999999999 153.36400000000003 99.886 C 153.50400000000002 99.90599999999999 153.64400000000003 99.914 153.78000000000003 99.914 C 155.33200000000002 99.914 156.68800000000002 98.766 156.89600000000004 97.186 C 157.12400000000005 95.46600000000001 155.91200000000003 93.882 154.19600000000005 93.65 C 153.19200000000006 93.518 152.28000000000006 93.902 151.61200000000005 94.558 L 148.64000000000004 91.09400000000001 C 148.67200000000005 90.71000000000001 148.71200000000005 90.302 148.74400000000006 89.938 C 148.78800000000007 89.43 148.82800000000006 88.87 148.87200000000004 88.354 L 153.25600000000003 83.742 C 153.68000000000004 84.074 154.16000000000003 84.33800000000001 154.73200000000003 84.414 C 154.872 84.434 155.01600000000002 84.44200000000001 155.15200000000002 84.44200000000001 C 155.84 84.44200000000001 156.50000000000003 84.218 157.056 83.79400000000001 C 157.72400000000002 83.28600000000002 158.15200000000002 82.546 158.264 81.71000000000001 C 158.376 80.87400000000001 158.156 80.054 157.644 79.38600000000001 C 157.132 78.718 156.39600000000002 78.29 155.56 78.17800000000001 C 154.82 78.07000000000001 154.132 78.27400000000002 153.54 78.63400000000001 L 149.92 74.59000000000002 C 149.94799999999998 74.19000000000001 149.976 73.79400000000001 150.004 73.39400000000002 L 160.92 70.70200000000003 C 158.86399999999998 89.79000000000002 155.91199999999998 116.54200000000003 154.684 124.41800000000003 C 154.088 128.25800000000004 153.264 132.21400000000003 150.424 134.71000000000004 C 145.976 138.62200000000004 138.876 137.13800000000003 134.544 135.68200000000004 C 137.452 133.31800000000004 139.744 129.91800000000003 141.55200000000002 125.92200000000004 L 145.904 126.202 z M 142.056 124.818 C 143.08800000000002 122.37 143.93200000000002 119.722 144.66000000000003 116.99799999999999 L 147.28400000000002 123.21 C 146.63200000000003 123.63 146.168 124.27799999999999 145.96400000000003 125.06599999999999 L 142.056 124.818 z M 149.888 126.454 L 148.92000000000002 124.166 C 148.936 124.166 148.948 124.158 148.96400000000003 124.158 C 149.04000000000002 124.158 149.11200000000002 124.162 149.18800000000002 124.174 C 149.632 124.23400000000001 150.02400000000003 124.45800000000001 150.29600000000002 124.81400000000001 C 150.56400000000002 125.17 150.68400000000003 125.60600000000001 150.62400000000002 126.05000000000001 C 150.56400000000002 126.49400000000001 150.336 126.88600000000001 149.98400000000004 127.15800000000002 C 149.63200000000003 127.42200000000001 149.18800000000005 127.55800000000002 148.74800000000005 127.48600000000002 C 148.07200000000006 127.39800000000002 147.54800000000006 126.91000000000003 147.36800000000005 126.29400000000003 L 149.888 126.454 z M 147.456 125.162 C 147.55599999999998 124.938 147.684 124.73400000000001 147.86399999999998 124.578 L 148.128 125.206 L 147.456 125.162 z M 145.76 50.37 L 139.112 50.37 C 137.94 49.669999999999995 136.74 49.198 135.536 49.138 C 133.752 49.038 132.224 49.506 131.136 50.37 L 118.152 50.37 C 118.528 46.802 118.812 44.117999999999995 118.96000000000001 42.721999999999994 C 120.19600000000001 42.705999999999996 121.41600000000001 42.693999999999996 122.66000000000001 42.678 C 128.996 42.598 135.352 42.525999999999996 141.304 42.489999999999995 L 141.304 43.126 C 141.304 46.286 143.128 49.006 145.76 50.37 z M 152.492 82.89 L 149.012 86.554 C 149.288 83.182 149.552 79.718 149.804 76.158 L 152.696 79.39 C 152.364 79.818 152.1 80.302 152.024 80.874 C 151.928 81.61 152.132 82.298 152.492 82.89 z M 149.488 47.306 C 147.18 47.306 145.304 45.43 145.304 43.122 L 145.304 35.21 C 145.304 32.902 147.18 31.026 149.488 31.026 L 151.94 31.026 L 151.94 31.03 L 151.94 47.306 L 149.488 47.306 z M 150.76 97.61 L 147.796 99.574 C 148.076 97.134 148.308 94.794 148.5 92.666 L 150.948 95.518 C 150.832 95.782 150.704 96.042 150.66400000000002 96.342 C 150.604 96.782 150.644 97.21 150.76 97.61 z M 147.648 51.498 C 147.628 51.657999999999994 147.608 51.826 147.596 51.946 C 147.42000000000002 53.998 147.256 56.186 147.088 58.354 C 145.356 56.153999999999996 143.152 53.426 140.732 51.498 L 147.648 51.498 z M 135.964 50.366 L 134.46 50.366 C 134.68 50.346 134.856 50.262 135.092 50.262 C 135.22 50.262 135.348 50.262 135.48000000000002 50.27 C 135.64 50.274 135.8 50.342 135.964 50.366 z M 131.344 51.674 C 131.408 51.598 131.53199999999998 51.57 131.60399999999998 51.498 L 138.796 51.498 C 141.672 53.326 144.444 56.821999999999996 146.464 59.394 L 146.472 59.406 C 141.99200000000002 60.158 132.704 59.914 131.208 56.954 C 130.404 55.354 130.132 53.102 131.344 51.674 z M 146.84 60.514 C 146.816 60.61 146.792 60.71 146.768 60.814 C 145.864 64.198 143.636 68.766 141.296 70.854 C 138.632 73.218 135.072 74.214 131.992 73.466 C 131.22 73.27799999999999 130.2 72.88199999999999 129.744 72.07799999999999 C 128.972 70.71 130.064 68.90599999999999 131.344 67.66999999999999 C 133.772 65.33 142.512 61.638 146.84 60.514 z M 147.052 105.226 L 149.22 108.622 C 148.716 109.114 148.352 109.722 148.26 110.43 C 148.256 110.47000000000001 148.272 110.51 148.268 110.55000000000001 L 146.036 111.09000000000002 C 146.424 109.13 146.76 107.166 147.052 105.226 z M 151.964 110.826 L 150.996 109.30199999999999 C 151.124 109.27 151.23600000000002 109.17399999999999 151.372 109.17399999999999 C 151.448 109.17399999999999 151.524 109.178 151.596 109.19 C 152.508 109.31 153.15200000000002 110.154 153.032 111.07 C 152.90800000000002 111.982 152.036 112.642 151.15200000000002 112.502 C 150.70800000000003 112.442 150.316 112.21799999999999 150.044 111.862 C 149.924 111.70599999999999 149.848 111.53 149.792 111.35 L 151.964 110.826 z M 149.872 110.166 C 149.91600000000003 110.07 149.96400000000003 109.982 150.024 109.89399999999999 L 150.156 110.09799999999998 L 149.872 110.166 z M 152.56 95.658 C 152.868 95.318 153.3 95.09400000000001 153.78 95.09400000000001 C 153.856 95.09400000000001 153.928 95.09800000000001 154.004 95.11000000000001 C 154.92 95.23000000000002 155.56 96.07400000000001 155.44 96.99000000000001 C 155.32 97.90200000000002 154.464 98.57400000000001 153.56 98.42200000000001 C 153.124 98.36600000000001 152.76 98.13400000000001 152.5 97.82200000000002 L 153.72 97.01400000000001 L 152.56 95.658 z M 153.492 81.07 C 153.51999999999998 80.85799999999999 153.588 80.666 153.684 80.49 L 154.212 81.082 L 153.55599999999998 81.77399999999999 C 153.488 81.55 153.46 81.314 153.492 81.07 z M 154.532 79.738 C 154.72400000000002 79.662 154.928 79.618 155.14000000000001 79.618 C 155.216 79.618 155.288 79.622 155.364 79.634 C 155.808 79.694 156.20000000000002 79.918 156.472 80.274 C 156.74 80.63 156.86 81.066 156.8 81.51 C 156.74 81.95400000000001 156.512 82.346 156.16000000000003 82.61800000000001 C 155.80400000000003 82.88600000000001 155.36800000000002 83.022 154.92400000000004 82.94600000000001 C 154.67200000000003 82.91400000000002 154.44800000000004 82.81800000000001 154.24800000000005 82.686 L 155.75200000000004 81.102 L 154.532 79.738 z M 150.088 72.202 C 150.11599999999999 71.81 150.144 71.422 150.172 71.03 C 150.412 67.606 150.652 64.202 150.9 60.866 L 161.828 62.198 C 161.592 64.422 161.332 66.878 161.048 69.498 L 150.088 72.202 z M 153.072 47.306 L 153.072 31.03 L 159.088 31.03 L 159.088 47.306 L 153.072 47.306 z M 160.224 47.306 L 160.224 31.03 L 166.23999999999998 31.03 L 166.23999999999998 47.306 L 160.224 47.306 z M 157.976 22.186 L 163.992 22.186 L 163.992 27.03 L 157.976 27.03 L 157.976 22.186 z M 150.828 22.186 L 156.844 22.186 L 156.844 27.03 L 150.828 27.03 L 150.828 22.186 z M 143.68 22.19 L 149.696 22.19 L 149.696 27.03 L 149.488 27.03 C 147.216 27.03 145.164 27.962 143.68 29.462 L 143.68 22.19 z M 136.528 22.19 L 142.54399999999998 22.19 L 142.54399999999998 30.93 L 142.54799999999997 30.93 C 141.77599999999998 32.178 141.30399999999997 33.638 141.30399999999997 35.214 L 141.30399999999997 38.461999999999996 L 136.52799999999996 38.461999999999996 L 136.52799999999996 22.19 z M 129.38 22.186 L 135.396 22.186 L 135.396 38.458 L 129.38 38.458 L 129.38 22.186 z M 122.232 22.186 L 128.248 22.186 L 128.248 38.458 L 122.23199999999999 38.458 L 122.23199999999999 22.186 z M 115.084 22.186 L 121.10000000000001 22.186 L 121.10000000000001 38.458 L 115.084 38.458 L 115.084 22.186 z M 107.936 22.186 L 113.95200000000001 22.186 L 113.95200000000001 38.458 L 107.936 38.458 L 107.936 22.186 z M 117.816 42.73 C 117.636 44.422 117.284 47.785999999999994 116.812 52.214 L 105.852 50.885999999999996 C 106.044 48.354 106.236 45.833999999999996 106.444 43.449999999999996 C 106.47200000000001 43.129999999999995 106.504 42.906 106.432 42.87799999999999 C 106.512 42.861999999999995 106.652 42.846 106.9 42.846 C 110.384 42.818 114.076 42.778 117.816 42.73 z M 119.3 59.814 L 117.08 60.362 C 117.344 57.902 117.592 55.594 117.816 53.49 L 118.9 53.622 C 118.66000000000001 53.89 118.49600000000001 54.214 118.49600000000001 54.586 L 118.49600000000001 58.534 C 118.5 59.082 118.828 59.534 119.3 59.814 z M 116.688 53.35 C 116.456 55.574 116.19200000000001 58.03 115.908 60.65 L 104.944 63.358 C 104.97200000000001 62.982 104.99600000000001 62.61 105.024 62.233999999999995 C 105.264 58.794 105.508 55.37 105.76 52.017999999999994 L 116.688 53.35 z M 100.168 34.278 L 100.168 26.366 C 100.168 24.058 102.04400000000001 22.182 104.34800000000001 22.182 L 106.80400000000002 22.182 L 106.80400000000002 38.45399999999999 L 104.34800000000001 38.45399999999999 C 102.04 38.458 100.168 36.586 100.168 34.278 z M 107.352 74.046 L 103.872 77.706 C 104.144 74.33800000000001 104.408 70.87400000000001 104.664 67.31400000000001 L 107.56 70.55000000000001 C 107.22800000000001 70.97800000000001 106.964 71.46200000000002 106.888 72.034 C 106.792 72.746 106.984 73.434 107.352 74.046 z M 105.62 88.766 L 102.652 90.73 C 102.936 88.28200000000001 103.168 85.946 103.36 83.818 L 105.80799999999999 86.67 C 105.692 86.938 105.564 87.206 105.52399999999999 87.502 C 105.468 87.938 105.508 88.366 105.62 88.766 z M 86.076 48.106 C 85.264 46.510000000000005 84.99199999999999 44.258 86.208 42.83 C 86.984 41.918 88.332 41.414 89.952 41.414 C 90.08 41.414 90.208 41.414 90.34 41.422000000000004 C 94.308 41.614000000000004 98.536 46.99400000000001 101.336 50.550000000000004 L 101.34 50.55800000000001 C 96.868 51.314 87.576 51.074 86.076 48.106 z M 96.16 62.006 C 93.496 64.366 89.932 65.366 86.856 64.622 C 85.728 64.346 84.972 63.874 84.60799999999999 63.23 C 83.83599999999998 61.861999999999995 84.92799999999998 60.058 86.204 58.821999999999996 C 88.764 56.354 97.65199999999999 52.738 101.69999999999999 51.666 C 101.67599999999999 51.769999999999996 101.64799999999998 51.882 101.61999999999999 51.994 C 100.712 55.382 98.492 59.93 96.16 62.006 z M 101.912 96.386 L 104.07600000000001 99.782 C 103.58800000000001 100.258 103.212 100.862 103.11600000000001 101.59 C 103.11200000000001 101.626 103.12800000000001 101.666 103.12400000000001 101.71000000000001 L 100.89200000000001 102.25000000000001 C 101.28 100.29 101.62 98.322 101.912 96.386 z M 99.524 108.154 L 102.152 114.36999999999999 C 102.07600000000001 114.41799999999999 101.988 114.43399999999998 101.916 114.48599999999999 C 101.348 114.91799999999999 101 115.538 100.828 116.21799999999999 L 96.924 115.96999999999998 C 97.952 113.522 98.796 110.878 99.524 108.154 z M 96.412 117.074 L 100.756 117.35 C 100.82 117.902 100.976 118.434 101.324 118.886 C 101.836 119.55799999999999 102.576 119.98599999999999 103.408 120.098 C 103.548 120.118 103.688 120.126 103.824 120.126 C 105.376 120.126 106.728 118.97800000000001 106.94 117.39800000000001 C 107.16799999999999 115.67800000000001 105.956 114.09400000000001 104.24 113.86200000000001 C 103.884 113.81400000000001 103.532 113.858 103.192 113.93 L 99.996 106.36600000000001 C 100.228 105.40600000000002 100.44 104.44200000000001 100.64399999999999 103.47000000000001 L 103.21199999999999 102.85000000000001 C 103.54399999999998 104.01800000000001 104.53599999999999 104.94600000000001 105.81599999999999 105.11800000000001 C 105.95599999999999 105.138 106.1 105.14600000000002 106.23599999999999 105.14600000000002 C 106.92399999999999 105.14600000000002 107.58399999999999 104.92200000000001 108.13999999999999 104.49800000000002 C 108.80799999999999 103.99000000000002 109.23599999999999 103.25000000000001 109.34799999999998 102.41400000000002 C 109.45999999999998 101.57800000000002 109.23999999999998 100.75800000000001 108.72799999999998 100.09000000000002 C 108.21599999999998 99.42200000000001 107.47999999999998 98.99400000000001 106.64399999999998 98.88200000000002 C 106.06399999999998 98.79800000000002 105.51999999999998 98.93400000000003 105.01599999999998 99.15000000000002 L 102.14799999999998 94.65000000000002 C 102.25999999999998 93.82600000000002 102.37199999999999 93.01000000000002 102.47199999999998 92.20200000000003 L 106.11999999999998 89.78600000000003 C 106.60799999999998 90.44200000000004 107.34399999999998 90.91400000000003 108.21999999999997 91.03400000000003 C 108.35999999999997 91.05400000000003 108.50399999999998 91.06200000000004 108.63999999999997 91.06200000000004 C 109.32799999999997 91.06200000000004 109.98799999999997 90.83800000000004 110.54399999999997 90.41400000000004 C 111.21199999999997 89.90600000000005 111.63999999999997 89.16600000000004 111.75199999999997 88.33000000000004 C 111.86399999999996 87.49800000000005 111.64399999999996 86.67400000000004 111.13599999999997 86.00600000000004 C 110.62399999999997 85.33400000000005 109.88399999999997 84.90600000000005 109.05199999999996 84.79400000000004 C 108.21999999999997 84.68200000000004 107.39199999999997 84.90200000000004 106.72399999999996 85.41400000000004 C 106.61999999999996 85.49400000000004 106.55999999999996 85.61000000000004 106.46799999999996 85.70200000000004 L 103.49199999999996 82.23400000000004 C 103.52399999999996 81.85000000000004 103.56399999999996 81.44600000000004 103.59599999999996 81.07800000000003 C 103.63999999999996 80.57000000000004 103.67999999999996 80.01000000000003 103.72399999999996 79.49800000000003 L 108.10799999999996 74.88600000000004 C 108.53999999999996 75.22200000000004 109.02399999999996 75.48200000000004 109.57999999999996 75.55400000000004 C 109.72399999999996 75.57400000000004 109.86799999999995 75.58200000000005 110.00799999999995 75.58200000000005 C 110.68799999999996 75.58200000000005 111.35199999999995 75.36200000000005 111.90399999999995 74.94200000000005 C 112.57199999999996 74.43000000000005 113.00399999999995 73.69000000000005 113.11599999999996 72.85800000000005 C 113.34399999999995 71.13800000000005 112.13199999999996 69.55400000000004 110.41599999999995 69.32200000000005 C 109.67599999999996 69.21800000000005 108.98799999999996 69.42600000000004 108.39599999999996 69.78200000000004 L 104.77199999999996 65.73400000000004 C 104.79999999999997 65.33400000000003 104.82799999999996 64.94200000000004 104.85599999999997 64.54200000000004 L 115.77599999999997 61.846000000000046 C 113.71999999999997 80.93800000000005 110.76399999999997 107.69000000000005 109.53999999999996 115.56200000000004 C 108.94399999999996 119.39800000000004 108.12399999999997 123.35000000000004 105.28399999999996 125.85400000000004 C 100.83999999999996 129.77000000000004 93.73999999999997 128.28600000000003 89.40399999999997 126.82600000000004 C 92.316 124.47 94.608 121.07 96.412 117.074 z M 104.748 117.606 L 103.784 115.326 C 103.80000000000001 115.326 103.808 115.314 103.82400000000001 115.314 C 103.9 115.314 103.97600000000001 115.318 104.04800000000002 115.33 C 104.96400000000001 115.45 105.60400000000001 116.294 105.48400000000001 117.21 C 105.36000000000001 118.122 104.50000000000001 118.77799999999999 103.608 118.642 C 103.164 118.582 102.772 118.354 102.5 117.99799999999999 C 102.372 117.83399999999999 102.288 117.64599999999999 102.232 117.44999999999999 L 104.748 117.606 z M 102.324 116.314 C 102.42 116.098 102.55199999999999 115.90599999999999 102.732 115.74199999999999 L 102.992 116.35399999999998 L 102.324 116.314 z M 106.828 101.978 L 105.824 100.40599999999999 C 105.956 100.36999999999999 106.092 100.33 106.232 100.33 C 106.30799999999999 100.33 106.38 100.334 106.456 100.346 C 106.9 100.406 107.292 100.63000000000001 107.56400000000001 100.986 C 107.83200000000001 101.342 107.95200000000001 101.778 107.89200000000001 102.22200000000001 C 107.83200000000001 102.66600000000001 107.60400000000001 103.058 107.25200000000001 103.33000000000001 C 106.89600000000002 103.59800000000001 106.46000000000001 103.73800000000001 106.016 103.65800000000002 C 105.35600000000001 103.57000000000002 104.848 103.10200000000002 104.656 102.50200000000001 L 106.828 101.978 z M 104.728 101.326 C 104.77199999999999 101.226 104.82799999999999 101.142 104.88799999999999 101.05399999999999 L 105.01599999999999 101.25399999999999 L 104.728 101.326 z M 107.428 86.814 C 107.496 86.738 107.548 86.64999999999999 107.628 86.586 C 107.924 86.362 108.276 86.242 108.64 86.242 C 108.716 86.242 108.792 86.24600000000001 108.864 86.25800000000001 C 109.308 86.31800000000001 109.7 86.546 109.97200000000001 86.90200000000002 C 110.24400000000001 87.25800000000001 110.36000000000001 87.69400000000002 110.30000000000001 88.13800000000002 C 110.24000000000001 88.58200000000002 110.01200000000001 88.97400000000002 109.66000000000001 89.24600000000002 C 109.30400000000002 89.51400000000002 108.86800000000001 89.64200000000002 108.424 89.57400000000003 C 107.988 89.51400000000002 107.62 89.28600000000003 107.36000000000001 88.97000000000003 L 108.58000000000001 88.16200000000002 L 107.428 86.814 z M 108.348 72.226 C 108.376 72.014 108.444 71.818 108.53999999999999 71.642 L 109.07199999999999 72.238 L 108.41599999999998 72.92999999999999 C 108.348 72.706 108.316 72.466 108.348 72.226 z M 109.392 70.894 C 109.58399999999999 70.81800000000001 109.792 70.77000000000001 110.00399999999999 70.77000000000001 C 110.076 70.77000000000001 110.15199999999999 70.77400000000002 110.22399999999999 70.78600000000002 C 111.13999999999999 70.90600000000002 111.77999999999999 71.75000000000001 111.66 72.66600000000001 C 111.6 73.10600000000001 111.372 73.50200000000001 111.01599999999999 73.77400000000002 C 110.66399999999999 74.04200000000002 110.228 74.16600000000001 109.77999999999999 74.09800000000001 C 109.53199999999998 74.06600000000002 109.31199999999998 73.97000000000001 109.10799999999999 73.84200000000001 L 110.612 72.25800000000001 L 109.392 70.894 z M 54.02 132.702 C 66.60000000000001 133.202 79.596 133.71 88.364 127.67399999999999 C 90.772 128.53799999999998 94.212 129.498 97.688 129.498 C 100.672 129.498 103.672 128.79 106.032 126.71399999999998 C 109.16 123.96199999999999 110.032 119.78599999999999 110.66 115.74199999999999 C 111.896 107.79399999999998 114.88799999999999 80.69 116.948 61.56199999999999 L 122.872 60.09799999999999 L 126.912 60.09799999999999 L 126.912 53.013999999999996 L 123.268 53.013999999999996 L 123.268 53.00599999999999 L 117.932 52.35799999999999 C 117.964 52.06999999999999 117.996 51.77799999999999 118.024 51.49799999999999 L 130.168 51.49799999999999 C 128.984 53.39799999999999 129.364 55.82999999999999 130.192 57.465999999999994 C 131.6 60.23799999999999 137.4 60.95799999999999 142.08 60.88999999999999 C 137.728 62.525999999999996 132.512 64.966 130.548 66.85799999999999 C 128.964 68.386 127.66 70.70599999999999 128.748 72.63 C 129.27599999999998 73.562 130.272 74.214 131.71599999999998 74.562 C 135.152 75.402 139.10799999999998 74.30199999999999 142.04399999999998 71.69 C 143.42399999999998 70.462 144.736 68.502 145.80399999999997 66.39 C 144.82799999999997 75.398 138.67999999999998 84.006 129.896 88.53 L 130.416 89.538 C 138.344 85.454 144.156 78.142 146.216 70.138 C 146.20000000000002 70.342 146.18800000000002 70.542 146.172 70.74600000000001 C 145.72 77.21400000000001 145.264 83.68200000000002 144.752 89.57400000000001 C 143.636 102.33400000000002 141.556 126.09 131.26000000000002 133.202 C 123.58800000000002 138.498 111.24000000000002 138.018 99.31600000000002 137.546 C 88.52400000000002 137.13 77.36000000000001 136.68599999999998 69.06000000000002 140.462 C 66.82000000000002 141.47799999999998 64.68000000000002 142.84199999999998 62.65600000000002 144.422 C 59.28000000000002 139.754 55.08400000000002 135.71 49.98400000000002 132.594 C 51.336 132.638 52.672 132.65 54.02 132.702 z M 120.424 58.166 L 120.424 54.94199999999999 L 122.14 54.94199999999999 L 122.14 58.166 L 120.424 58.166 z M 123.272 58.17 L 123.272 54.942 L 124.992 54.942 L 124.992 58.17 L 123.272 58.17 z M 92.9 141.386 C 108.668 150.014 116.52000000000001 167.418 117.188 184.954 L 50.276 184.954 C 50.364000000000004 184.638 50.48800000000001 184.33 50.548 184.006 C 50.748000000000005 178.898 51.232 171.778 52.172000000000004 167.894 C 54.712 157.41 61.992000000000004 148.074 70.72 144.106 C 75.704 141.84199999999998 82.148 141.28199999999998 88.968 141.28199999999998 C 90.26 141.282 91.588 141.354 92.9 141.386 z M 16.352 190.53 L 6.224 190.53 C 5.4 190.53 4.732 189.862 4.732 189.038 L 4.732 184.078 L 17.836 184.078 L 17.836 189.038 L 17.84 189.038 C 17.84 189.862 17.172 190.53 16.352 190.53 z M 45.1 189.07 C 45.1 189.874 44.444 190.53 43.64 190.53 L 33.456 190.53 C 32.652 190.53 31.996000000000002 189.874 31.996000000000002 189.07 L 31.996000000000002 184.078 L 45.1 184.078 L 45.1 189.07 z M 46.644 181.81 L 2.26 181.81 L 2.26 178.374 L 46.844 178.374 C 46.76 179.598 46.696 180.746 46.644 181.81 z M 47.02 176.106 L 5.264 176.106 L 5.264 175.978 C 5.264 175.714 5.328 175.49800000000002 5.404 175.286 C 5.6 170.162 6.088 162.946 7.032 159.046 C 9.572 148.56199999999998 16.852 139.226 25.58 135.25799999999998 C 30.564 132.99399999999997 37.007999999999996 132.43399999999997 43.824 132.43399999999997 C 45.12 132.43399999999997 46.448 132.50599999999997 47.763999999999996 132.53799999999998 C 53.51199999999999 135.68599999999998 58.111999999999995 140.058 61.77199999999999 145.12599999999998 C 55.35999999999999 150.474 50.36399999999999 158.36599999999999 48.28399999999999 166.95 C 47.692 169.402 47.292 172.802 47.02 176.106 z M 62.98 197.886 C 62.98 198.706 62.312 199.374 61.488 199.374 L 51.364 199.374 C 50.544 199.374 49.876 198.706 49.876 197.886 L 49.876 192.926 L 62.98 192.926 L 62.98 197.886 z M 90.244 197.914 L 90.24 197.914 C 90.24 198.718 89.58399999999999 199.374 88.78 199.374 L 78.6 199.374 C 77.79199999999999 199.374 77.14 198.718 77.14 197.914 L 77.14 192.926 L 90.244 192.926 L 90.244 197.914 z M 117.5 197.814 C 117.5 198.674 116.8 199.374 115.94 199.374 L 105.956 199.374 C 105.096 199.374 104.396 198.674 104.396 197.814 L 104.396 192.922 L 117.5 192.922 L 117.5 197.814 z M 144.756 198.21 C 144.756 198.85 144.236 199.374 143.592 199.374 L 132.82 199.374 C 132.176 199.374 131.652 198.85 131.652 198.21 L 131.652 192.92600000000002 L 144.75599999999997 192.92600000000002 L 144.75599999999997 198.21 z M 179.612 199.374 L 169.32 199.374 C 168.54399999999998 199.374 167.912 198.746 167.912 197.966 L 167.912 192.922 L 181.01600000000002 192.922 L 181.01600000000002 197.966 L 181.02 197.966 C 181.02 198.742 180.388 199.374 179.612 199.374 z M 208.284 198.17 L 208.28 198.17 C 208.28 198.83399999999997 207.74 199.374 207.076 199.374 L 196.384 199.374 C 195.72 199.374 195.17999999999998 198.834 195.17999999999998 198.17 L 195.17999999999998 192.922 L 208.284 192.922 L 208.284 198.17 z M 212.26 187.222 L 212.26 190.65800000000002 L 212.256 190.65800000000002 L 47.612 190.65800000000002 C 47.812000000000005 190.16600000000003 47.936 189.63000000000002 47.936 189.07000000000002 L 47.936 187.222 L 212.26 187.222 z M 207.848 184.954 L 181.86 184.954 C 186.388 173.422 196.19600000000003 157.70600000000002 209.70000000000002 156.994 C 209.83200000000002 156.986 209.912 156.914 209.996 156.85 C 211.324 169.27 208.852 180.886 207.848 184.954 z M 205.804 85.102 C 201.404 107.022 196.86 129.69 203.15200000000002 136.258 C 207.11200000000002 142.294 209.06 149.202 209.88000000000002 155.92600000000002 C 209.81600000000003 155.906 209.78000000000003 155.854 209.69600000000003 155.858 C 195.46400000000003 156.61 185.29600000000002 172.922 180.64400000000003 184.954 L 118.32 184.954 C 117.66399999999999 167.614 110.09599999999999 150.558 95.07199999999999 141.442 C 96.43999999999998 141.48600000000002 97.79999999999998 141.49800000000002 99.16399999999999 141.55 C 111.73199999999999 142.042 124.72799999999998 142.55 133.5 136.518 C 135.908 137.382 139.352 138.338 142.828 138.338 C 145.816 138.338 148.816 137.63 151.17600000000002 135.554 C 154.3 132.806 155.17600000000002 128.63 155.80800000000002 124.58200000000001 C 157.044 116.63400000000001 160.032 89.53 162.092 70.406 L 168.01600000000002 68.94600000000001 L 172.056 68.94600000000001 L 172.056 61.86200000000001 L 168.412 61.86200000000001 L 168.412 61.854000000000006 L 163.076 61.206 C 163.108 60.918000000000006 163.14 60.626000000000005 163.168 60.346000000000004 L 210.11200000000002 60.346000000000004 C 209.344 67.434 207.34 77.446 205.804 85.102 z M 165.564 67.014 L 165.564 63.79 L 167.28 63.79 L 167.28 67.014 L 165.564 67.014 z M 168.412 67.018 L 168.412 63.79 L 170.132 63.79 L 170.132 67.018 L 168.412 67.018 z M 210.228 59.214 L 163.288 59.214 C 163.668 55.646 163.952 52.966 164.096 51.566 C 165.4 51.550000000000004 166.684 51.534000000000006 167.996 51.518 C 175.904 51.422000000000004 183.916 51.322 191.02800000000002 51.306 L 193.06400000000002 51.306 C 199.872 51.309999999999995 205.728 51.406 209.54800000000003 51.69 L 209.57600000000002 51.306 L 209.59600000000003 51.306 L 209.57200000000003 51.69 C 210.512 52.298 210.604 55.194 210.228 59.214 z M 212.22 47.306 L 210.264 47.306 L 210.264 31.03 L 212.216 31.03 C 214.524 31.03 216.39600000000002 32.906 216.39600000000002 35.214 L 216.39600000000002 43.122 L 216.4 43.122 C 216.4 45.43 214.524 47.306 212.22 47.306 z" stroke-linecap="round" />
</g>
</svg>